:FULLY-SPECIFIED
:FORCE-ALL-JOINTS-BE-3DOF
:DEGREES
307
root 10.0162 16.7529 6.1858 7.37394 7.44989 5.10003
lfemur 13.7066 2.92769 -28.7047
ltibia 6.36111e-15 0 0
lfoot -14.6643 0.872805 0
ltoes 1.19895 0 0
rfemur -44.1939 18.1536 -0.849533
rtibia 25.2359 0 0
rfoot -32.8452 -19.8742 0
rtoes -21.3767 0 0
lowerback -8.02387 -4.9625 -6.90312
upperback -0.755937 -6.07315 1.90723
thorax 4.62974 -3.16703 5.0961
lowerneck -18.8571 -4.68291 -12.8086
upperneck 21.7683 -5.85366 12.2363
head 10.8954 -2.32653 5.74676
lclavicle -4.66647e-14 -3.18055e-15 0
lhumerus -11.9981 -35.5609 90.3238
lradius 37.2263 0 0
lwrist 17.6575 0 0
lhand -11.3006 -20.8009 0
lfingers 7.12502 0 0
lthumb 14.7309 8.6557 0
rclavicle -4.66647e-14 -3.18055e-15 0
rhumerus -49.7118 6.05712 -82.7475
rradius 34.614 0 0
rwrist -18.9952 0 0
rhand -28.2791 -27.186 0
rfingers 7.12502 0 0
rthumb -1.65544 -57.1593 0
308
root 10.0047 16.7292 6.35042 7.44406 7.63756 5.10145
lfemur 14.2263 2.99215 -28.4742
ltibia 1.32523e-14 0 0
lfoot -14.6882 0.637734 -0.000609742
ltoes 0.573593 -0 0
rfemur -44.1969 17.6774 -0.567534
rtibia 24.9671 -0 0
rfoot -32.6656 -19.8874 -0.0169208
rtoes -21.0902 0 0
lowerback -8.11592 -4.97901 -6.92967
upperback -0.776308 -6.08633 1.90696
thorax 4.6643 -3.17434 5.10248
lowerneck -18.8131 -4.72886 -12.7953
upperneck 21.7225 -5.93294 12.2666
head 10.8823 -2.3591 5.74143
lclavicle -4.36291e-14 1.98786e-15 0
lhumerus -12.3371 -36.1918 90.708
lradius 37.7609 -0 0
lwrist 17.3805 0 0
lhand -10.9087 -20.9972 -0.000550922
lfingers 7.12502 0 0
lthumb 15.1085 8.43264 -0.000252712
rclavicle -4.36291e-14 1.98786e-15 0
rhumerus -49.7739 5.97393 -82.7427
rradius 34.1943 -0 0
rwrist -18.7861 0 0
rhand -28.1281 -26.5482 -0.00162931
rfingers 7.12502 0 0
rthumb -1.50966 -56.5237 -0.00151743
309
root 9.99317 16.7056 6.51504 7.50644 7.7868 5.02507
lfemur 14.7487 3.09861 -28.1522
ltibia 2.01435e-14 0 0
lfoot -14.664 0.445693 0.0010192
ltoes -0.659658 0 0
rfemur -43.973 16.535 0.332332
rtibia 24.6806 -0 0
rfoot -31.9637 -19.4787 -0.0235259
rtoes -20.1716 0 0
lowerback -8.21267 -4.97723 -6.88034
upperback -0.784908 -6.08214 1.91976
thorax 4.70502 -3.17218 5.08196
lowerneck -18.8299 -4.77839 -12.7307
upperneck 21.7037 -6.02077 12.2696
head 10.8895 -2.39263 5.71658
lclavicle -4.05935e-14 7.15627e-15 0
lhumerus -12.6874 -36.8607 91.0817
lradius 38.2755 -0 0
lwrist 17.02 0 0
lhand -10.5759 -21.2361 -0.000274062
lfingers 7.12502 0 0
lthumb 15.4292 8.17071 0.000376498
rclavicle -4.05935e-14 7.15627e-15 0
rhumerus -49.7907 5.88373 -82.7622
rradius 33.7367 -0 0
rwrist -18.5806 0 0
rhand -28.1001 -25.6058 -0.00422015
rfingers 7.12502 0 0
rthumb -1.48258 -55.5818 -0.00400356
310
root 9.98165 16.6819 6.67967 7.56184 7.91127 4.90957
lfemur 15.2784 3.22816 -27.7758
ltibia 2.70347e-14 0 0
lfoot -14.5885 0.265317 0.00331146
ltoes -2.21465 0 0
rfemur -43.6367 14.9546 1.61147
rtibia 24.4374 -0 0
rfoot -30.8949 -18.7479 -0.0239941
rtoes -18.9871 0 0
lowerback -8.30635 -4.96397 -6.79232
upperback -0.78733 -6.0667 1.93683
thorax 4.74541 -3.16385 5.04598
lowerneck -18.8884 -4.83055 -12.637
upperneck 21.706 -6.11365 12.2556
head 10.9119 -2.42675 5.68026
lclavicle -3.75579e-14 1.23247e-14 0
lhumerus -13.0629 -37.5329 91.4576
lradius 38.7677 -0 0
lwrist 16.6001 0 0
lhand -10.2668 -21.5008 0.000299366
lfingers 7.12502 0 0
lthumb 15.727 7.88358 0.00118143
rclavicle -3.75579e-14 1.23247e-14 0
rhumerus -49.7816 5.78945 -82.7973
rradius 33.264 -0 0
rwrist -18.3686 0 0
rhand -28.1544 -24.5258 -0.00569475
rfingers 7.12502 0 0
rthumb -1.53501 -54.5012 -0.00544042
311
root 9.97014 16.6582 6.84429 7.61124 8.02456 4.79368
lfemur 15.8197 3.3625 -27.3822
ltibia 3.39259e-14 0 0
lfoot -14.4584 0.0652429 0.00473772
ltoes -3.80521 0 0
rfemur -43.2903 13.1676 3.03935
rtibia 24.2987 -0 0
rfoot -29.6146 -17.7951 -0.0227802
rtoes -17.9029 0 0
lowerback -8.38917 -4.94622 -6.70278
upperback -0.789172 -6.04616 1.94941
thorax 4.77895 -3.15268 5.00596
lowerneck -18.9694 -4.88436 -12.5363
upperneck 21.7235 -6.20811 12.2349
head 10.9442 -2.4611 5.64054
lclavicle -3.45223e-14 1.74931e-14 0
lhumerus -13.4773 -38.1735 91.8485
lradius 39.2351 -0 0
lwrist 16.1449 0 0
lhand -9.94574 -21.7748 0.000720721
lfingers 7.12502 0 0
lthumb 16.0361 7.58491 0.0015974
rclavicle -3.45223e-14 1.74931e-14 0
rhumerus -49.7663 5.69402 -82.8395
rradius 32.7993 -0 0
rwrist -18.1399 0 0
rhand -28.2504 -23.4752 -0.00477303
rfingers 7.12502 0 0
rthumb -1.62773 -53.4494 -0.00457586
312
root 9.95862 16.6346 7.00891 7.65572 8.14019 4.71619
lfemur 16.3762 3.48396 -27.0093
ltibia 4.08171e-14 0 0
lfoot -14.2705 -0.185904 0.00396088
ltoes -5.1452 0 0
rfemur -43.0114 11.4108 4.39932
rtibia 24.3254 -0 0
rfoot -28.278 -16.7198 -0.0184105
rtoes -17.2853 0 0
lowerback -8.45341 -4.93107 -6.64886
upperback -0.796041 -6.02664 1.94871
thorax 4.79914 -3.14202 4.97333
lowerneck -19.054 -4.939 -12.4508
upperneck 21.7504 -6.30063 12.218
head 10.9809 -2.49532 5.60548
lclavicle -3.14867e-14 2.26615e-14 0
lhumerus -13.9437 -38.7474 92.2663
lradius 39.6751 -0 0
lwrist 15.6783 0 0
lhand -9.57737 -22.0412 0.000686927
lfingers 7.12502 0 0
lthumb 16.3907 7.28836 0.00126291
rclavicle -3.14867e-14 2.26615e-14 0
rhumerus -49.764 5.60037 -82.8798
rradius 32.3655 -0 0
rwrist -17.8845 0 0
rhand -28.3475 -22.6209 -0.00206856
rfingers 7.12502 0 0
rthumb -1.72151 -52.5939 -0.00198768
313
root 9.94711 16.6109 7.17353 7.6965 8.27162 4.71591
lfemur 16.9516 3.57557 -26.6952
ltibia 4.77083e-14 0 0
lfoot -14.0215 -0.519512 0
ltoes -5.94846 0 0
rfemur -42.8521 9.92662 5.48664
rtibia 24.5787 0 0
rfoot -27.0401 -15.6214 0
rtoes -17.5004 0 0
lowerback -8.49135 -4.92572 -6.66769
upperback -0.813547 -6.01429 1.92595
thorax 4.79951 -3.13523 4.95952
lowerneck -19.1227 -4.99374 -12.4028
upperneck 21.7805 -6.38774 12.2151
head 11.0169 -2.52908 5.58316
lclavicle -2.84511e-14 2.78299e-14 0
lhumerus -14.4744 -39.219 92.7222
lradius 40.0854 0 0
lwrist 15.2244 0 0
lhand -9.12611 -22.2835 0
lfingers 7.12502 0 0
lthumb 16.825 7.00758 0
rclavicle -2.84511e-14 2.78299e-14 0
rhumerus -49.7943 5.51138 -82.9096
rradius 31.9856 0 0
rwrist -17.5921 0 0
rhand -28.4051 -22.13 0
rfingers 7.12502 0 0
rthumb -1.77719 -52.1024 0
314
root 9.92778 16.582 7.35156 7.74286 8.42256 4.83292
lfemur 17.5427 3.6271 -26.475
ltibia 4.77083e-14 0 0
lfoot -13.722 -0.97191 -0.00450254
ltoes -5.99889 0 0
rfemur -42.7935 8.63329 6.33197
rtibia 25.1067 -0 0
rfoot -25.9126 -14.3934 0.0238074
rtoes -18.8827 0 0
lowerback -8.49938 -4.93355 -6.79875
upperback -0.844929 -6.00949 1.86713
thorax 4.77717 -3.13289 4.97215
lowerneck -19.1874 -5.05444 -12.3889
upperneck 21.8334 -6.47649 12.2163
head 11.0621 -2.56612 5.56871
lclavicle -1.62424e-14 2.54445e-14 0
lhumerus -15.083 -39.5806 93.2159
lradius 40.4866 -0 0
lwrist 14.7745 0 0
lhand -8.53125 -22.5024 -0.00178454
lfingers 7.12502 0 0
lthumb 17.3973 6.73561 -0.00269572
rclavicle -1.62424e-14 2.54445e-14 0
rhumerus -49.8599 5.42174 -82.9341
rradius 31.6498 -0 0
rwrist -17.2138 0 0
rhand -28.4261 -22.0898 0.0006335
rfingers 7.12502 0 0
rthumb -1.79751 -52.062 0.000612258
315
root 9.90845 16.553 7.52959 7.79614 8.58283 5.04427
lfemur 18.1457 3.65115 -26.3258
ltibia 4.77083e-14 0 0
lfoot -13.3767 -1.52526 -0.00656779
ltoes -5.4822 0 0
rfemur -42.7831 7.32348 7.11124
rtibia 25.8702 -0 0
rfoot -24.7736 -12.9349 0.0327399
rtoes -21.2062 0 0
lowerback -8.48291 -4.94951 -7.02025
upperback -0.886349 -6.00747 1.77646
thorax 4.73674 -3.13243 5.00362
lowerneck -19.2659 -5.12289 -12.3906
upperneck 21.9179 -6.57105 12.2112
head 11.1229 -2.60745 5.55467
lclavicle -4.0337e-15 2.30591e-14 0
lhumerus -15.7607 -39.8578 93.7367
lradius 40.8849 -0 0
lwrist 14.3078 0 0
lhand -7.80904 -22.7116 -0.00390221
lfingers 7.12502 0 0
lthumb 18.092 6.4601 -0.00571392
rclavicle -4.0337e-15 2.30591e-14 0
rhumerus -49.9457 5.32805 -82.9612
rradius 31.3379 -0 0
rwrist -16.748 0 0
rhand -28.4436 -22.3841 0.00103944
rfingers 7.12502 0 0
rthumb -1.81437 -52.3562 0.00100506
316
root 9.88912 16.5241 7.70762 7.84556 8.74509 5.29419
lfemur 18.763 3.66483 -26.1985
ltibia 4.77083e-14 0 0
lfoot -12.9736 -2.12972 -0.0063963
ltoes -4.71493 0 0
rfemur -42.8067 6.0524 7.84244
rtibia 26.7992 -0 0
rfoot -23.5775 -11.3529 0.0294137
rtoes -23.9963 0 0
lowerback -8.4478 -4.96803 -7.27736
upperback -0.932802 -6.00656 1.67252
thorax 4.68298 -3.13246 5.04247
lowerneck -19.3476 -5.19235 -12.4076
upperneck 22.0115 -6.6637 12.2097
head 11.1881 -2.64867 5.54526
lclavicle 8.175e-15 2.06737e-14 0
lhumerus -16.4849 -40.0649 94.2793
lradius 41.2558 -0 0
lwrist 13.8297 0 0
lhand -7.03944 -22.9133 -0.00517881
lfingers 7.12502 0 0
lthumb 18.8322 6.18664 -0.0073607
rclavicle 8.175e-15 2.06737e-14 0
rhumerus -50.0446 5.23608 -82.9864
rradius 31.0569 -0 0
rwrist -16.2554 0 0
rhand -28.4622 -22.8748 0.00117947
rfingers 7.12502 0 0
rthumb -1.83232 -52.8468 0.00114094
317
root 9.86979 16.4951 7.88565 7.87995 8.90223 5.52681
lfemur 19.3972 3.6842 -26.0437
ltibia 4.77083e-14 0 0
lfoot -12.5005 -2.73544 -0.00445054
ltoes -4.01363 0 0
rfemur -42.85 4.8748 8.54289
rtibia 27.8237 -0 0
rfoot -22.2781 -9.75435 0.0180746
rtoes -26.7782 0 0
lowerback -8.39995 -4.98364 -7.51524
upperback -0.979288 -6.00508 1.57386
thorax 4.62064 -3.13162 5.07725
lowerneck -19.4222 -5.25606 -12.4393
upperneck 22.0922 -6.74671 12.2217
head 11.2468 -2.68537 5.54473
lclavicle 2.03837e-14 1.82882e-14 0
lhumerus -17.2337 -40.2165 94.8386
lradius 41.5752 -0 0
lwrist 13.3458 0 0
lhand -6.30241 -23.1098 -0.0049747
lfingers 7.12502 0 0
lthumb 19.541 5.92087 -0.00681647
rclavicle 2.03837e-14 1.82882e-14 0
rhumerus -50.1495 5.1516 -83.005
rradius 30.8139 -0 0
rwrist -15.7968 0 0
rhand -28.4866 -23.4236 0.00103702
rfingers 7.12502 0 0
rthumb -1.85594 -53.3954 0.00100358
318
root 9.85046 16.4661 8.06368 7.88777 9.04725 5.68611
lfemur 20.051 3.72421 -25.8115
ltibia 4.77083e-14 0 0
lfoot -11.9453 -3.29262 -0.00170478
ltoes -3.69484 0 0
rfemur -42.8979 3.84512 9.22911
rtibia 28.8737 -0 0
rfoot -20.829 -8.24568 0.00504136
rtoes -29.0774 0 0
lowerback -8.34538 -4.99099 -7.67905
upperback -1.02081 -6.0013 1.49904
thorax 4.55449 -3.1286 5.09651
lowerneck -19.4794 -5.30724 -12.4854
upperneck 22.1376 -6.81238 12.2573
head 11.2879 -2.71318 5.55734
lclavicle 3.25924e-14 1.59028e-14 0
lhumerus -17.9853 -40.3279 95.4099
lradius 41.8185 -0 0
lwrist 12.8617 0 0
lhand -5.67791 -23.3035 -0.00313969
lfingers 7.12502 0 0
lthumb 20.1416 5.66841 -0.00410726
rclavicle 3.25924e-14 1.59028e-14 0
rhumerus -50.2536 5.08042 -83.0125
rradius 30.616 -0 0
rwrist -15.4328 0 0
rhand -28.5217 -23.8925 0.000607093
rfingers 7.12502 0 0
rthumb -1.8898 -53.864 0.000587813
319
root 9.83113 16.4372 8.24171 7.8572 9.17318 5.71601
lfemur 20.7272 3.79858 -25.4517
ltibia 4.77083e-14 0 0
lfoot -11.2958 -3.75144 0
ltoes -4.0751 0 0
rfemur -42.935 3.01747 9.9169
rtibia 29.8792 0 0
rfoot -19.1833 -6.93302 0
rtoes -30.4191 0 0
lowerback -8.29009 -4.98488 -7.71391
upperback -1.05237 -5.99346 1.4666
thorax 4.48927 -3.12208 5.08879
lowerneck -19.5088 -5.3391 -12.5455
upperneck 22.1253 -6.85297 12.3264
head 11.3004 -2.7277 5.58736
lclavicle 4.48011e-14 1.35174e-14 0
lhumerus -18.7185 -40.4145 95.9892
lradius 41.9616 0 0
lwrist 12.383 0 0
lhand -5.24591 -23.4967 0
lfingers 7.12502 0 0
lthumb 20.5571 5.4349 0
rclavicle 4.48011e-14 1.35174e-14 0
rhumerus -50.3497 5.02837 -83.0043
rradius 30.4702 0 0
rwrist -15.2242 0 0
rhand -28.5721 -24.1432 0
rfingers 7.12502 0 0
rthumb -1.93846 -54.1142 0
